<?xml version="1.0" encoding="UTF-8"?>
<!DOCTYPE svg PUBLIC "-//W3C//DTD SVG 1.1//EN" "http://www.w3.org/Graphics/SVG/1.1/DTD/svg11.dtd">
<!-- Creator: CorelDRAW X7 -->
<svg xmlns="http://www.w3.org/2000/svg" xml:space="preserve" width="81.3646mm" height="20.4892mm" version="1.1" style="shape-rendering:geometricPrecision; text-rendering:geometricPrecision; image-rendering:optimizeQuality; fill-rule:evenodd; clip-rule:evenodd"
viewBox="0 0 8136 2049"
 xmlns:xlink="http://www.w3.org/1999/xlink">
 <defs>
  <style type="text/css">
   <![CDATA[
    .fil0 {fill:white}
    .fil1 {fill:white;fill-rule:nonzero}
   ]]>
  </style>
 </defs>
 <g id="Layer_x0020_1">
  <metadata id="CorelCorpID_0Corel-Layer"/>
  <g id="_1397629652288">
   <g>
    <polygon class="fil0" points="3083,1951 2638,1757 2596,1855 3040,2049 "/>
    <polygon class="fil0" points="3088,1661 3023,1705 2942,1890 2779,1818 2859,1634 2847,1556 "/>
    <path class="fil0" d="M3186 1600l23 -52 -181 -78 18 -42 181 78 29 -67 -69 -30 18 -42 69 30 25 -56 -181 -79 19 -42 180 79 29 -67 -69 -30 18 -42 69 30 25 -56 -180 -79 18 -42 180 79 29 -67 -69 -30 18 -42 69 31 29 -67 -180 -78 18 -42 181 78 24 -56 -69 -31 18 -42 70 31 25 -58 -181 -78 19 -42 180 78 23 -52c5,-12 5,-25 0,-37 -4,-12 -14,-22 -26,-27l-271 -118c-25,-11 -53,0 -64,25l-425 975c-5,12 -5,25 -1,37 5,12 14,22 26,27l272 118c12,6 25,6 37,1 12,-5 22,-14 27,-26zm-83 67l-271 -118c-24,-10 -41,-30 -50,-52 -9,-23 -9,-48 1,-72l425 -975c21,-48 76,-70 124,-49l115 50 190 -437c5,-12 19,-17 31,-12 5,2 10,7 12,13 2,5 2,11 -1,17l-190 437 115 50c24,10 41,30 50,52 9,23 9,49 -1,72l-66 152 0 0 -19 42 0 0 -340 781c-21,48 -77,70 -125,49z"/>
   </g>
   <path class="fil1" d="M3937 1588l-262 0 0 -753 242 0 0 126c40,-49 82,-86 128,-110 45,-25 94,-37 146,-37 80,0 141,23 182,69 41,45 62,112 62,200l0 505 -260 0 0 -432c0,-39 -8,-69 -25,-89 -16,-20 -40,-30 -72,-30 -45,0 -80,15 -105,46 -24,31 -36,75 -36,134l0 371z"/>
   <path id="1" class="fil1" d="M5111 1026c-16,-9 -30,-15 -45,-19 -14,-4 -28,-6 -42,-6 -50,0 -92,21 -125,62 -34,42 -52,94 -52,157 0,59 15,109 45,148 30,39 66,59 110,59 17,0 34,-5 53,-14 18,-9 37,-23 56,-42l0 -345zm262 -191l0 471c0,59 1,108 3,148 3,40 6,75 10,103l-242 67 -24 -72c-33,25 -65,43 -97,54 -31,12 -64,18 -99,18 -97,0 -178,-39 -244,-116 -66,-78 -100,-174 -100,-289 0,-122 38,-222 112,-301 74,-79 168,-119 281,-119 26,0 53,4 82,11 28,7 60,18 94,33l224 -8z"/>
   <path id="2" class="fil1" d="M6230 1545c-46,26 -91,46 -136,58 -45,13 -91,19 -139,19 -125,0 -228,-38 -309,-113 -80,-75 -120,-170 -120,-286 0,-119 43,-220 130,-301 86,-81 195,-121 326,-121 48,0 95,5 141,16 45,11 89,27 132,49l-30 234c-41,-25 -80,-44 -119,-57 -38,-13 -73,-20 -106,-20 -59,0 -108,18 -147,54 -39,36 -59,80 -59,134 0,57 18,103 54,137 37,35 84,52 143,52 37,0 76,-8 118,-24 42,-16 91,-42 146,-77l-25 246zm-491 406l0 -100c46,13 87,22 123,28 36,6 67,8 92,8 29,0 52,-5 67,-16 15,-10 23,-26 23,-47 0,-23 -9,-40 -28,-51 -19,-10 -50,-16 -92,-16 -3,0 -9,1 -16,1 -8,1 -14,1 -18,1l0 -171 75 0 0 79 14 0c67,0 116,13 148,39 33,27 49,67 49,122 0,51 -18,90 -54,117 -37,28 -88,42 -155,42 -30,0 -65,-3 -104,-9 -39,-7 -80,-16 -124,-27z"/>
   <path id="3" class="fil1" d="M6893 1026c-16,-9 -31,-15 -45,-19 -14,-4 -28,-6 -42,-6 -50,0 -92,21 -126,62 -34,42 -51,94 -51,157 0,59 15,109 45,148 30,39 66,59 109,59 17,0 35,-5 53,-14 18,-9 37,-23 57,-42l0 -345zm262 -191l0 471c0,59 1,108 3,148 2,40 5,75 10,103l-243 67 -23 -72c-33,25 -65,43 -97,54 -31,12 -64,18 -99,18 -97,0 -179,-39 -245,-116 -66,-78 -99,-174 -99,-289 0,-122 37,-222 111,-301 75,-79 168,-119 282,-119 26,0 53,4 82,11 28,7 59,18 94,33l224 -8zm-107 -365c-12,66 -32,113 -59,144 -27,29 -62,45 -107,45 -8,0 -17,-1 -27,-2 -10,-2 -20,-4 -30,-7l-71 -21c-11,-2 -21,-5 -29,-6 -8,-2 -17,-2 -24,-2 -19,0 -34,4 -45,14 -12,9 -21,23 -27,42l-84 0c11,-61 30,-107 57,-137 26,-31 61,-46 104,-46 10,0 22,1 34,4 12,2 24,5 37,9l73 20c7,2 14,3 21,4 7,1 14,1 22,1 18,0 33,-5 46,-16 12,-11 21,-26 26,-46l83 0z"/>
   <path id="4" class="fil1" d="M7572 1211c0,65 14,116 42,155 27,40 63,59 106,59 43,0 78,-19 105,-59 28,-40 42,-91 42,-155 0,-63 -14,-114 -42,-154 -27,-40 -62,-60 -105,-60 -43,0 -79,20 -106,60 -28,39 -42,91 -42,154zm-267 0c0,-120 40,-218 118,-296 78,-77 177,-116 297,-116 120,0 219,39 298,116 78,78 118,176 118,296 0,120 -40,219 -118,296 -79,78 -178,117 -298,117 -120,0 -218,-39 -297,-117 -78,-77 -118,-176 -118,-296z"/>
   <polygon class="fil1" points="379,1647 1,846 290,846 415,1134 545,846 787,846 403,1647 "/>
   <path id="1" class="fil1" d="M1360 1037c-16,-9 -31,-15 -45,-19 -14,-4 -28,-6 -42,-6 -50,0 -92,21 -126,62 -34,42 -51,94 -51,157 0,59 15,109 45,148 30,39 66,59 109,59 17,0 35,-4 53,-14 18,-9 37,-23 57,-42l0 -345zm261 -191l0 471c0,59 2,108 4,149 2,39 5,74 10,102l-243 67 -23 -72c-33,25 -65,43 -97,55 -31,11 -64,17 -99,17 -97,0 -179,-39 -245,-116 -66,-78 -99,-174 -99,-289 0,-122 37,-222 111,-301 74,-79 168,-119 282,-119 25,0 53,4 81,11 29,7 60,18 95,33l223 -8z"/>
   <path id="2" class="fil1" d="M2479 1556c-46,27 -92,46 -137,58 -45,13 -91,19 -138,19 -126,0 -229,-37 -309,-113 -81,-75 -121,-170 -121,-286 0,-119 43,-220 130,-301 87,-81 196,-121 326,-121 48,0 95,5 141,16 46,11 90,27 132,49l-29 234c-41,-25 -81,-44 -119,-57 -38,-13 -74,-20 -107,-20 -59,0 -108,18 -147,54 -39,36 -58,81 -58,134 0,57 18,103 54,137 36,35 84,52 143,52 37,0 76,-8 118,-24 42,-16 90,-42 145,-77l-24 246z"/>
  </g>
 </g>
</svg>
